<svg id="cloud" xmlns="http://www.w3.org/2000/svg" xmlns:xlink="http://www.w3.org/1999/xlink" viewBox="0 0 33 31"><defs><style>.cls-1,.cls-4,.cls-5{fill:none;}.cls-2{fill:#999;}.cls-3{clip-path:url(#clip-path);}.cls-4,.cls-5{stroke:#999;stroke-linecap:round;stroke-linejoin:round;}.cls-4{stroke-width:2.25px;}.cls-5{stroke-width:1.5px;}</style><clipPath id="clip-path"><rect class="cls-1" x="12.3" y="7.97" width="15.37" height="14.47"/></clipPath></defs><path class="cls-2" d="M25.41,20.14a4.77,4.77,0,0,1,1.61,1,4.31,4.31,0,0,1,0,6.43,5.12,5.12,0,0,1-3.49,1.34H6.77a6.22,6.22,0,0,1-4.1-1.52A5.34,5.34,0,0,1,.85,23.66a5.22,5.22,0,0,1,1.48-3.84,6.09,6.09,0,0,1,4-1.83,8.43,8.43,0,0,1,3.66-4.24,9.53,9.53,0,0,1,3-1.1l-.34,2h-.18a7.11,7.11,0,0,0-2,1A6.43,6.43,0,0,0,8,19.11a.83.83,0,0,1-.37.51A1.06,1.06,0,0,1,7,19.8,4,4,0,0,0,5.43,20a4,4,0,0,0-1.33.75,3.64,3.64,0,0,0-.9,1.17,3.29,3.29,0,0,0-.35,1.4,3.45,3.45,0,0,0,.27,1.42A3.71,3.71,0,0,0,4,26a3.92,3.92,0,0,0,1.29.81,4.38,4.38,0,0,0,1.52.3H23.53a3.12,3.12,0,0,0,2.1-.8,2.66,2.66,0,0,0,.86-1.94,2.57,2.57,0,0,0-.3-1.2,2.76,2.76,0,0,0-.85-.95,2.92,2.92,0,0,0-1.21-.52,3.39,3.39,0,0,0-.84-.05ZM12.62,14.67"/><g class="cls-3"><path class="cls-4" d="M20,21.23a6.23,6.23,0,0,0,6.4-6,6.22,6.22,0,0,0-6.4-6,6.23,6.23,0,0,0-6.41,6A6.23,6.23,0,0,0,20,21.23Z"/><path class="cls-5" d="M20,18.93V11.47m1.74,1.35a2.49,2.49,0,0,0-2.06-.46c-.66.18-1.46.75-1.48,1.45a1.12,1.12,0,0,0,.11.49c.57,1.15,2.88.8,3.3,1.73a1.55,1.55,0,0,1,.11.49,1.29,1.29,0,0,1-.24.8,1.91,1.91,0,0,1-1.55.51,3.83,3.83,0,0,1-2.1-.65"/></g><g id="격리_모드-2" data-name="격리 모드"><path class="cls-2" d="M20,7.24a.77.77,0,0,0,.52-.2.66.66,0,0,0,.22-.49V3.81a.68.68,0,0,0-.22-.49.79.79,0,0,0-1.05,0,.68.68,0,0,0-.22.49V6.55a.66.66,0,0,0,.22.49A.78.78,0,0,0,20,7.24Z"/><path class="cls-2" d="M25.53,9.54a.78.78,0,0,0,.53.21.67.67,0,0,0,.28-.06.77.77,0,0,0,.25-.14l2.1-2a.66.66,0,0,0,.22-.48.68.68,0,0,0-.22-.49.79.79,0,0,0-1.05,0L25.53,8.57a.67.67,0,0,0-.21.49.75.75,0,0,0,.05.26A.6.6,0,0,0,25.53,9.54Z"/><path class="cls-2" d="M11,7.35l2.11,1.94a.79.79,0,0,0,1,0,.82.82,0,0,0,.16-.22.66.66,0,0,0,.06-.27.58.58,0,0,0-.06-.26.69.69,0,0,0-.16-.22L12.1,6.37a.88.88,0,0,0-.53-.21.72.72,0,0,0-.29.06.61.61,0,0,0-.24.15.72.72,0,0,0-.17.22.86.86,0,0,0,0,.27.58.58,0,0,0,.06.26A.73.73,0,0,0,11,7.35Z"/><path class="cls-2" d="M32.5,14.72a.78.78,0,0,0-.53-.2H29a.78.78,0,0,0-.53.2.64.64,0,0,0,0,1,.78.78,0,0,0,.53.2h3a.78.78,0,0,0,.53-.2.67.67,0,0,0,0-1Z"/></g></svg>