<svg width="33" height="31" viewBox="0 0 33 31" fill="none" xmlns="http://www.w3.org/2000/svg">
<g clip-path="url(#clip0_31_2070)">
<path d="M15.7296 14.3239C15.8113 14.3239 15.8929 14.3252 15.9744 14.3278C16.4215 14.342 16.8654 14.3951 17.3003 14.4861C17.7011 14.5699 18.0942 14.6859 18.4751 14.8332C19.3446 15.1694 20.133 15.662 20.7943 16.2824C21.4557 16.9027 21.9768 17.6384 22.3272 18.4465C22.6777 19.2547 22.8506 20.1191 22.8358 20.9896C22.8334 21.1337 22.867 21.2764 22.9341 21.4065C23.0011 21.5367 23.0997 21.6508 23.2223 21.7401C23.3448 21.8293 23.488 21.8912 23.6407 21.9211C23.7934 21.9509 23.9515 21.9478 24.1027 21.9121C24.5529 21.8056 25.0235 21.7954 25.4786 21.8824C25.9336 21.9694 26.3612 22.1512 26.7286 22.414C27.096 22.6768 27.3936 23.0136 27.5986 23.3988C27.8036 23.7839 27.9107 24.2073 27.9116 24.6364C27.9116 25.3824 27.5907 26.0977 27.0196 26.6252C26.4485 27.1526 25.6738 27.4489 24.8661 27.4489H7.60829C7.06843 27.4461 6.5346 27.3439 6.03802 27.1483C5.54144 26.9527 5.09208 26.6676 4.71623 26.3097C4.34038 25.9518 4.04559 25.5283 3.84909 25.0639C3.65259 24.5995 3.55834 24.1036 3.57183 23.6052C3.58533 23.1068 3.70632 22.6159 3.92771 22.1612C4.1491 21.7065 4.46646 21.2971 4.86121 20.957C5.25597 20.6169 5.72019 20.3529 6.22674 20.1804C6.73329 20.008 7.27199 19.9306 7.81133 19.9527C8.04527 19.9638 8.27617 19.8999 8.4649 19.7717C8.65362 19.6436 8.78854 19.4591 8.8468 19.2496C9.24061 17.8401 10.1304 16.5915 11.3762 15.6999C12.6221 14.8083 14.1535 14.3243 15.7296 14.3239ZM24.8113 19.9489C24.5829 18.0479 23.6618 16.275 22.1992 14.9209C20.7365 13.5667 18.8191 12.7116 16.7612 12.4959C14.7033 12.2801 12.6271 12.7165 10.873 13.7334C9.11884 14.7503 7.79088 16.2874 7.1068 18.0927C5.53927 18.2112 4.08212 18.885 3.04038 19.9732C1.99864 21.0614 1.45307 22.4795 1.51787 23.9307C1.58267 25.3819 2.25282 26.7537 3.38803 27.759C4.52324 28.7643 6.03552 29.325 7.60829 29.3239H24.8661C26.2123 29.3239 27.5034 28.8301 28.4553 27.951C29.4072 27.0719 29.9419 25.8796 29.9419 24.6364C29.9419 23.3932 29.4072 22.2009 28.4553 21.3219C27.5034 20.4428 26.2123 19.9489 24.8661 19.9489H24.8113Z" fill="#999999"/>
<path d="M21.6171 3.74481C21.6171 3.49617 21.5101 3.25771 21.3198 3.0819C21.1294 2.90608 20.8712 2.80731 20.6019 2.80731C20.3327 2.80731 20.0745 2.90608 19.8841 3.0819C19.6937 3.25771 19.5868 3.49617 19.5868 3.74481V5.61981C19.5868 5.86845 19.6937 6.10691 19.8841 6.28272C20.0745 6.45854 20.3327 6.55731 20.6019 6.55731C20.8712 6.55731 21.1294 6.45854 21.3198 6.28272C21.5101 6.10691 21.6171 5.86845 21.6171 5.61981V3.74481ZM29.2166 7.42731C29.3136 7.34083 29.3909 7.23738 29.4441 7.123C29.4973 7.00862 29.5253 6.88561 29.5265 6.76113C29.5277 6.63664 29.502 6.5132 29.451 6.39798C29.3999 6.28276 29.3245 6.17809 29.2292 6.09007C29.1339 6.00204 29.0206 5.93243 28.8958 5.88529C28.771 5.83815 28.6374 5.81443 28.5026 5.81551C28.3678 5.8166 28.2346 5.84246 28.1107 5.89159C27.9869 5.94073 27.8748 6.01215 27.7812 6.10169L26.3437 7.42731C26.1531 7.60335 26.046 7.84211 26.046 8.09106C26.046 8.34002 26.1531 8.57877 26.3437 8.75481C26.5343 8.93085 26.7929 9.02975 27.0625 9.02975C27.332 9.02975 27.5906 8.93085 27.7812 8.75481L29.2166 7.42731ZM13.4227 6.10169C13.2312 5.93091 12.9748 5.83642 12.7086 5.83855C12.4424 5.84069 12.1878 5.93929 11.9996 6.11311C11.8114 6.28693 11.7046 6.52206 11.7023 6.76787C11.7 7.01368 11.8023 7.2505 11.9872 7.42731L13.4227 8.75481C13.5171 8.84198 13.6291 8.91112 13.7524 8.95829C13.8758 9.00547 14.0079 9.02975 14.1414 9.02975C14.2749 9.02975 14.4071 9.00547 14.5304 8.95829C14.6537 8.91112 14.7658 8.84198 14.8602 8.75481C14.9545 8.66765 15.0294 8.56417 15.0805 8.45028C15.1316 8.33639 15.1579 8.21433 15.1579 8.09106C15.1579 7.96779 15.1316 7.84573 15.0805 7.73184C15.0294 7.61796 14.9545 7.51448 14.8602 7.42731L13.4227 6.10169ZM26.0473 20.0667C27.2655 20.4698 28.3314 21.1729 29.1374 22.0767C29.248 21.994 29.3385 21.8908 29.4031 21.7738C29.4676 21.6568 29.5049 21.5285 29.5123 21.3973C29.5198 21.2662 29.4973 21.135 29.4464 21.0124C29.3954 20.8897 29.3172 20.7783 29.2166 20.6854L27.7812 19.3598C27.6365 19.2254 27.451 19.1346 27.2493 19.0995C27.0476 19.0644 26.839 19.0865 26.6513 19.1631C26.4635 19.2397 26.3052 19.367 26.1974 19.5283C26.0896 19.6896 26.0372 19.8773 26.0473 20.0667ZM29.7384 13.1198C29.4692 13.1198 29.211 13.2186 29.0206 13.3944C28.8302 13.5702 28.7233 13.8087 28.7233 14.0573C28.7233 14.306 28.8302 14.5444 29.0206 14.7202C29.211 14.896 29.4692 14.9948 29.7384 14.9948H31.7688C32.038 14.9948 32.2962 14.896 32.4866 14.7202C32.677 14.5444 32.7839 14.306 32.7839 14.0573C32.7839 13.8087 32.677 13.5702 32.4866 13.3944C32.2962 13.2186 32.038 13.1198 31.7688 13.1198H29.7384Z" fill="#999999"/>
<path d="M20.6869 16.6087C22.9882 16.6087 24.8536 14.7432 24.8536 12.442C24.8536 10.1407 22.9882 8.27533 20.6869 8.27533C18.3857 8.27533 16.5203 10.1407 16.5203 12.442C16.5203 14.7432 18.3857 16.6087 20.6869 16.6087Z" stroke="#999999" stroke-width="2" stroke-linecap="round" stroke-linejoin="round"/>
<path d="M20.6869 14.2716V15.1503M21.9369 10.9836C21.6515 10.6982 21.149 10.4999 20.6869 10.4874L21.9369 10.9836ZM19.4369 13.692C19.7052 14.0503 20.2048 14.2545 20.6869 14.2716L19.4369 13.692ZM20.6869 10.4874C20.1369 10.4724 19.6452 10.7211 19.6452 11.4003C19.6452 12.6503 21.9369 12.0253 21.9369 13.2753C21.9369 13.9882 21.3269 14.2945 20.6869 14.2716V10.4874ZM20.6869 10.4874V9.73364V10.4874Z" stroke="#999999" stroke-linecap="round" stroke-linejoin="round"/>
</g>
<defs>
<clipPath id="clip0_31_2070">
<rect width="32.4853" height="30" fill="white" transform="translate(0.277588 0.932312)"/>
</clipPath>
</defs>
</svg>
