<svg width="33" height="31" viewBox="0 0 33 31" fill="none" xmlns="http://www.w3.org/2000/svg">
<g clip-path="url(#clip0_31_2087)">
<path d="M5.49469 21.606C5.74981 21.6848 5.96067 21.8538 6.08096 22.076C6.20126 22.2981 6.22115 22.5553 6.13627 22.791L5.12111 25.6035C5.08287 25.7246 5.01858 25.8373 4.93208 25.9349C4.84558 26.0325 4.73865 26.1129 4.61769 26.1715C4.49674 26.23 4.36423 26.2654 4.22812 26.2755C4.092 26.2856 3.95507 26.2703 3.82553 26.2304C3.69598 26.1906 3.57647 26.1269 3.47416 26.0434C3.37186 25.9599 3.28885 25.8582 3.23011 25.7443C3.17136 25.6305 3.1381 25.5068 3.1323 25.3809C3.1265 25.2549 3.14829 25.1291 3.19635 25.011L4.21152 22.1985C4.29676 21.9629 4.47977 21.7682 4.72036 21.6571C4.96095 21.546 5.23945 21.5277 5.49469 21.606ZM24.7828 21.606C25.038 21.6848 25.2488 21.8538 25.3691 22.076C25.4894 22.2981 25.5093 22.5553 25.4244 22.791L24.4093 25.6035C24.371 25.7246 24.3067 25.8373 24.2202 25.9349C24.1337 26.0325 24.0268 26.1129 23.9058 26.1715C23.7849 26.23 23.6524 26.2654 23.5163 26.2755C23.3801 26.2856 23.2432 26.2703 23.1137 26.2304C22.9841 26.1906 22.8646 26.1269 22.7623 26.0434C22.66 25.9599 22.577 25.8582 22.5183 25.7443C22.4595 25.6305 22.4262 25.5068 22.4204 25.3809C22.4146 25.2549 22.4364 25.1291 22.4845 25.011L23.4997 22.1985C23.5849 21.9629 23.7679 21.7682 24.0085 21.6571C24.2491 21.546 24.5276 21.5277 24.7828 21.606ZM9.55535 24.4185C9.81047 24.4973 10.0213 24.6663 10.1416 24.8885C10.2619 25.1106 10.2818 25.3678 10.1969 25.6035L9.18177 28.416C9.14353 28.5371 9.07924 28.6498 8.99274 28.7474C8.90624 28.845 8.79932 28.9254 8.67836 28.984C8.5574 29.0425 8.4249 29.0779 8.28878 29.088C8.15267 29.0981 8.01574 29.0828 7.88619 29.0429C7.75664 29.0031 7.63713 28.9394 7.53483 28.8559C7.43252 28.7724 7.34951 28.6707 7.29077 28.5568C7.23203 28.443 7.19876 28.3193 7.19296 28.1934C7.18716 28.0674 7.20895 27.9416 7.25702 27.8235L8.27218 25.011C8.35743 24.7754 8.54044 24.5807 8.78102 24.4696C9.02161 24.3585 9.30011 24.3402 9.55535 24.4185ZM28.8435 24.4185C29.0986 24.4973 29.3095 24.6663 29.4298 24.8885C29.5501 25.1106 29.57 25.3678 29.4851 25.6035L28.4699 28.416C28.4317 28.5371 28.3674 28.6498 28.2809 28.7474C28.1944 28.845 28.0875 28.9254 27.9665 28.984C27.8455 29.0425 27.713 29.0779 27.5769 29.088C27.4408 29.0981 27.3039 29.0828 27.1743 29.0429C27.0448 29.0031 26.9253 28.9394 26.823 28.8559C26.7207 28.7724 26.6377 28.6707 26.5789 28.5568C26.5202 28.443 26.4869 28.3193 26.4811 28.1934C26.4753 28.0674 26.4971 27.9416 26.5452 27.8235L27.5603 25.011C27.6456 24.7754 27.8286 24.5807 28.0692 24.4696C28.3098 24.3585 28.5883 24.3402 28.8435 24.4185ZM27.3147 8.48291C26.893 6.52009 25.8025 4.73331 24.2026 3.38381C22.6026 2.03432 20.5771 1.19289 18.4223 0.982555C16.2675 0.772223 14.0963 1.20402 12.2262 2.21481C10.3561 3.2256 8.88519 4.76236 8.02854 6.60041C7.06787 6.49821 6.09471 6.57816 5.16865 6.83536C4.2426 7.09257 3.38313 7.52162 2.64288 8.09624C1.90262 8.67087 1.29716 9.37898 0.863547 10.1772C0.429937 10.9755 0.17731 11.847 0.121132 12.7386C0.0649548 13.6301 0.206409 14.5228 0.536834 15.3621C0.86726 16.2014 1.3797 16.9696 2.04279 17.6197C2.70588 18.2697 3.50565 18.7879 4.39315 19.1426C5.28065 19.4972 6.2372 19.6809 7.20423 19.6823H26.4924C28.0377 19.6839 29.5259 19.1431 30.6555 18.1693C31.7852 17.1955 32.4718 15.8616 32.5764 14.4378C32.6809 13.014 32.1955 11.6067 31.2186 10.501C30.2416 9.39536 28.8461 8.67394 27.3147 8.48291ZM17.3559 2.80729C19.3536 2.80691 21.2815 3.48654 22.7707 4.71625C24.26 5.94596 25.2062 7.63945 25.4285 9.47291C25.4561 9.70328 25.5751 9.91603 25.7626 10.0701C25.9501 10.2242 26.1927 10.3087 26.4436 10.3073H26.4924C27.5693 10.3073 28.6022 10.7024 29.3637 11.4056C30.1252 12.1089 30.553 13.0627 30.553 14.0573C30.553 15.0519 30.1252 16.0057 29.3637 16.7089C28.6022 17.4122 27.5693 17.8073 26.4924 17.8073H7.20423C6.48564 17.807 5.77532 17.6657 5.12025 17.3929C4.46518 17.1202 3.8803 16.722 3.40429 16.2249C2.92828 15.7278 2.572 15.143 2.35901 14.5092C2.14602 13.8754 2.08118 13.207 2.16878 12.5484C2.25638 11.8897 2.49441 11.2557 2.86715 10.6884C3.23988 10.121 3.73881 9.63321 4.33094 9.25723C4.92306 8.88125 5.59488 8.62565 6.30196 8.50736C7.00904 8.38907 7.73526 8.41078 8.43258 8.57104C8.68135 8.62834 8.94439 8.59659 9.16886 8.48216C9.39332 8.36773 9.56259 8.1791 9.64266 7.95416C10.1792 6.45637 11.2133 5.15285 12.598 4.22888C13.9827 3.3049 15.6475 2.80747 17.3559 2.80729Z" fill="#999999"/>
<g clip-path="url(#clip1_31_2087)">
<path d="M16.7105 21.4989H14.6599C13.0323 21.4989 11.755 23.3454 11.755 25.7062C11.755 28.0669 13.0323 29.9135 14.6599 29.9135H16.7105C18.3381 29.9135 19.6154 28.0669 19.6154 25.7062C19.6154 23.3454 18.3381 21.4989 16.7105 21.4989ZM17.3214 27.4203C17.441 27.0124 17.5168 26.5949 17.5478 26.1737H18.5688C18.5353 26.5977 18.4449 27.0163 18.2996 27.4203H17.3214ZM17.5478 25.2387C17.5168 24.8175 17.441 24.4 17.3214 23.9921H18.2996C18.4449 24.396 18.5353 24.8147 18.5688 25.2387H17.5478ZM17.787 23.0572H16.9326C16.8119 22.8377 16.6688 22.629 16.5054 22.4339H16.7105C16.9412 22.4339 17.3641 22.5196 17.787 23.0572ZM13.4125 28.1137C13.0024 27.4787 12.7803 26.6256 12.7803 25.7062C12.7803 24.7868 13.0024 23.9337 13.4125 23.2987C13.891 22.5468 14.3993 22.4339 14.6599 22.4339C14.9205 22.4339 15.4289 22.5468 15.9073 23.2987C15.9899 23.4284 16.064 23.5624 16.1295 23.6999C16.1293 23.702 16.1296 23.7042 16.1303 23.7062C16.131 23.7082 16.1322 23.71 16.1338 23.7116C16.3986 24.2843 16.5396 24.9738 16.5396 25.7062C16.5396 26.4386 16.3986 27.1281 16.1338 27.7007C16.1322 27.7023 16.131 27.7042 16.1303 27.7062C16.1296 27.7082 16.1293 27.7103 16.1295 27.7124C16.064 27.85 15.9899 27.984 15.9073 28.1137C15.4289 28.8655 14.9205 28.9785 14.6599 28.9785C14.3993 28.9785 13.891 28.8655 13.4125 28.1137ZM16.7105 28.9785H16.5054C16.6688 28.7834 16.8119 28.5747 16.9326 28.3552H17.787C17.3641 28.8928 16.9412 28.9785 16.7105 28.9785Z" fill="#999999"/>
</g>
</g>
<defs>
<clipPath id="clip0_31_2087">
<rect width="32.4853" height="30" fill="white" transform="translate(0.0980225 0.932312)"/>
</clipPath>
<clipPath id="clip1_31_2087">
<rect width="9.74559" height="9" fill="white" transform="translate(11.755 20.9135)"/>
</clipPath>
</defs>
</svg>
