<svg xmlns="http://www.w3.org/2000/svg" xmlns:xlink="http://www.w3.org/1999/xlink" viewBox="0 0 33 31"><defs><style>.cls-1{fill:none;}.cls-2{clip-path:url(#clip-path);}.cls-3{clip-path:url(#clip-path-2);}.cls-4{fill:#999;}</style><clipPath id="clip-path"><rect class="cls-1" x="0.27" y="1" width="32.49" height="30"/></clipPath><clipPath id="clip-path-2"><rect class="cls-1" x="11.92" y="20.98" width="9.75" height="9"/></clipPath></defs><g id="rain"><g class="cls-2"><g class="cls-3"><path class="cls-4" d="M16.88,21.57h-2c-1.63,0-2.91,1.84-2.91,4.21S13.2,30,14.83,30h2c1.62,0,2.9-1.84,2.9-4.2S18.5,21.57,16.88,21.57Zm.61,5.92a6,6,0,0,0,.22-1.25h1a4.8,4.8,0,0,1-.26,1.25Zm.22-2.18a6,6,0,0,0-.22-1.25h1a4.88,4.88,0,0,1,.26,1.25ZM18,23.13H17.1a4.38,4.38,0,0,0-.43-.63h.21A1.37,1.37,0,0,1,18,23.13Zm-4.37,5.05a4.91,4.91,0,0,1,0-4.81,1.53,1.53,0,0,1,1.25-.87c.26,0,.76.12,1.24.87a2.24,2.24,0,0,1,.22.4h0a5.06,5.06,0,0,1,0,4h0a2.24,2.24,0,0,1-.22.4c-.48.75-1,.87-1.24.87A1.53,1.53,0,0,1,13.58,28.18Zm3.3.87h-.21a4.38,4.38,0,0,0,.43-.63H18A1.37,1.37,0,0,1,16.88,29.05Z"/></g></g><g id="격리_모드-3" data-name="격리 모드"><path class="cls-4" d="M16.5,4.29h.27a9,9,0,0,1,1.46.17,8.45,8.45,0,0,1,1.3.39,8,8,0,0,1,2.55,1.59,7.34,7.34,0,0,1,1.69,2.39,6.77,6.77,0,0,1,.56,2.8,1,1,0,0,0,.11.46,1,1,0,0,0,.31.36,1.16,1.16,0,0,0,.47.2,1.06,1.06,0,0,0,.5,0,3.89,3.89,0,0,1,1.52,0,3.61,3.61,0,0,1,1.38.59,3.16,3.16,0,0,1,.95,1.08,2.87,2.87,0,0,1,.35,1.36,3,3,0,0,1-1,2.19,3.47,3.47,0,0,1-2.37.91h-19a4.63,4.63,0,0,1-1.73-.33,4.52,4.52,0,0,1-1.46-.92,4.12,4.12,0,0,1-1-1.37,3.91,3.91,0,0,1-.31-1.61,4,4,0,0,1,.39-1.59,4.41,4.41,0,0,1,1-1.33,4.74,4.74,0,0,1,3.25-1.1,1.21,1.21,0,0,0,.72-.2,1,1,0,0,0,.42-.58A7.27,7.27,0,0,1,11.71,5.8,8.26,8.26,0,0,1,16.5,4.29Zm10,6.19a9,9,0,0,0-2.87-5.54,10.43,10.43,0,0,0-6-2.67,10.82,10.82,0,0,0-6.49,1.37A9.43,9.43,0,0,0,7,8.44a6.89,6.89,0,0,0-4.48,2.07,5.85,5.85,0,0,0,.38,8.57,7,7,0,0,0,4.65,1.73h19a5.83,5.83,0,0,0,3.95-1.52,4.88,4.88,0,0,0,0-7.3,5.87,5.87,0,0,0-3.95-1.51Z"/></g><path class="cls-4" d="M4.43,26A.77.77,0,0,0,5,26a1,1,0,0,0,.25-.15.76.76,0,0,0,.17-.23l1.27-2.56a.62.62,0,0,0,0-.53.66.66,0,0,0-.37-.38.8.8,0,0,0-.57,0,.75.75,0,0,0-.41.37L4.08,25.09a.7.7,0,0,0,0,.53.83.83,0,0,0,.15.23A.76.76,0,0,0,4.43,26Z"/><path class="cls-4" d="M8.09,28.57a.77.77,0,0,0,.56,0,.64.64,0,0,0,.25-.15.72.72,0,0,0,.17-.22l1.27-2.57a.62.62,0,0,0,0-.53.69.69,0,0,0-.37-.38.8.8,0,0,0-.57,0A.76.76,0,0,0,9,25.1L7.74,27.66a.7.7,0,0,0,0,.53.51.51,0,0,0,.15.23A.61.61,0,0,0,8.09,28.57Z"/><path class="cls-4" d="M21.62,26a.77.77,0,0,0,.56,0,.87.87,0,0,0,.25-.15.76.76,0,0,0,.17-.23l1.28-2.56a.7.7,0,0,0,0-.53.68.68,0,0,0-.38-.38.77.77,0,0,0-.56,0,.73.73,0,0,0-.42.37l-1.27,2.57a.66.66,0,0,0,0,.53,1.14,1.14,0,0,0,.15.23A.91.91,0,0,0,21.62,26Z"/><path class="cls-4" d="M25.15,28.57a.8.8,0,0,0,.57,0,.61.61,0,0,0,.24-.15.76.76,0,0,0,.18-.22l1.27-2.57a.7.7,0,0,0,0-.53.71.71,0,0,0-.38-.38.77.77,0,0,0-.56,0,.75.75,0,0,0-.42.38l-1.27,2.56a.62.62,0,0,0,0,.53.59.59,0,0,0,.14.23A.83.83,0,0,0,25.15,28.57Z"/></g></svg>