<svg xmlns="http://www.w3.org/2000/svg" xmlns:xlink="http://www.w3.org/1999/xlink" viewBox="0 0 33 31"><defs><style>.cls-1,.cls-3,.cls-4{fill:none;}.cls-2{clip-path:url(#clip-path);}.cls-3,.cls-4{stroke:#999;stroke-linecap:round;stroke-linejoin:round;}.cls-3{stroke-width:2.25px;}.cls-4{stroke-width:1.5px;}.cls-5{clip-path:url(#clip-path-2);}.cls-6{fill:#999;}</style><clipPath id="clip-path"><rect class="cls-1" x="8" y="7.78" width="17" height="16"/></clipPath><clipPath id="clip-path-2"><rect class="cls-1" x="0.26" y="0.78" width="32.49" height="30"/></clipPath></defs><g id="sun"><g class="cls-2"><path class="cls-3" d="M16.5,22.44a6.88,6.88,0,0,0,7.08-6.66A6.89,6.89,0,0,0,16.5,9.11a6.89,6.89,0,0,0-7.08,6.67A6.88,6.88,0,0,0,16.5,22.44Z"/><path class="cls-4" d="M16.51,19.94V11.62m1.94,1.5a2.81,2.81,0,0,0-2.3-.51c-.73.2-1.62.83-1.65,1.61a1.26,1.26,0,0,0,.12.55c.63,1.28,3.22.89,3.68,1.93a1.59,1.59,0,0,1,.13.54,1.41,1.41,0,0,1-.27.89,2.12,2.12,0,0,1-1.73.57A4.26,4.26,0,0,1,14.09,18"/></g><g class="cls-5"><path class="cls-6" d="M16.5.78a1,1,0,0,1,.72.27.91.91,0,0,1,.3.66V5.46a.93.93,0,0,1-.3.67,1.09,1.09,0,0,1-1.44,0,.93.93,0,0,1-.3-.67V1.71a.91.91,0,0,1,.3-.66A1,1,0,0,1,16.5.78Zm0,24.37a1,1,0,0,1,.72.28.89.89,0,0,1,.3.66v3.75a.89.89,0,0,1-.3.66,1.07,1.07,0,0,1-1.44,0,.89.89,0,0,1-.3-.66V26.09a.89.89,0,0,1,.3-.66A1,1,0,0,1,16.5,25.15Zm16.24-9.37a.91.91,0,0,1-.29.66,1.11,1.11,0,0,1-.72.27H27.67a1.09,1.09,0,0,1-.72-.27.89.89,0,0,1,0-1.33,1.09,1.09,0,0,1,.72-.27h4.06a1.11,1.11,0,0,1,.72.27A.92.92,0,0,1,32.74,15.78Zm-26.39,0a.92.92,0,0,1-.3.66,1.09,1.09,0,0,1-.72.27H1.27a1.11,1.11,0,0,1-.72-.27.91.91,0,0,1,0-1.33,1.11,1.11,0,0,1,.72-.27H5.33a1.09,1.09,0,0,1,.72.27A.93.93,0,0,1,6.35,15.78ZM28,5.17a.9.9,0,0,1,0,1.32L25.11,9.15a1.08,1.08,0,0,1-.33.2,1,1,0,0,1-.38.07,1.09,1.09,0,0,1-.72-.27.84.84,0,0,1-.22-.31.86.86,0,0,1-.08-.36.91.91,0,0,1,.3-.66l2.87-2.65a1.07,1.07,0,0,1,1.44,0ZM9.32,22.41a.88.88,0,0,1,0,1.32L6.45,26.38a1.08,1.08,0,0,1-.71.27A1.12,1.12,0,0,1,5,26.37a.88.88,0,0,1-.3-.65A.91.91,0,0,1,5,25.06l2.88-2.65a1,1,0,0,1,.71-.28A1,1,0,0,1,9.32,22.41Zm18.67,4a1.07,1.07,0,0,1-1.44,0l-2.87-2.65a.89.89,0,0,1-.29-.66.92.92,0,0,1,.3-.65,1.05,1.05,0,0,1,1.42,0L28,25.06a.9.9,0,0,1,0,1.32ZM9.32,9.15a1.09,1.09,0,0,1-.72.27,1.06,1.06,0,0,1-.71-.27L5,6.49a.93.93,0,0,1-.22-.3.91.91,0,0,1-.09-.36,1,1,0,0,1,.08-.37A1.05,1.05,0,0,1,5,5.16,1.08,1.08,0,0,1,5.34,5a1.23,1.23,0,0,1,.39-.07A1,1,0,0,1,6.12,5a1,1,0,0,1,.33.21L9.32,7.82a.89.89,0,0,1,.22.3.94.94,0,0,1,.08.36.86.86,0,0,1-.08.36A.84.84,0,0,1,9.32,9.15Z"/></g></g></svg>