<svg width="33" height="31" viewBox="0 0 33 31" fill="none" xmlns="http://www.w3.org/2000/svg">
<g clip-path="url(#clip0_31_2074)">
<path d="M16.4397 0.930603C16.7089 0.930603 16.9671 1.02938 17.1575 1.20519C17.3479 1.38101 17.4548 1.61946 17.4548 1.8681V5.6181C17.4548 5.86674 17.3479 6.1052 17.1575 6.28102C16.9671 6.45683 16.7089 6.5556 16.4397 6.5556C16.1704 6.5556 15.9122 6.45683 15.7218 6.28102C15.5315 6.1052 15.4245 5.86674 15.4245 5.6181V1.8681C15.4245 1.61946 15.5315 1.38101 15.7218 1.20519C15.9122 1.02938 16.1704 0.930603 16.4397 0.930603ZM16.4397 25.3056C16.7089 25.3056 16.9671 25.4044 17.1575 25.5802C17.3479 25.756 17.4548 25.9945 17.4548 26.2431V29.9931C17.4548 30.2417 17.3479 30.4802 17.1575 30.656C16.9671 30.8318 16.7089 30.9306 16.4397 30.9306C16.1704 30.9306 15.9122 30.8318 15.7218 30.656C15.5315 30.4802 15.4245 30.2417 15.4245 29.9931V26.2431C15.4245 25.9945 15.5315 25.756 15.7218 25.5802C15.9122 25.4044 16.1704 25.3056 16.4397 25.3056ZM32.6823 15.9306C32.6823 16.1792 32.5754 16.4177 32.385 16.5935C32.1946 16.7693 31.9364 16.8681 31.6672 16.8681H27.6065C27.3373 16.8681 27.079 16.7693 26.8887 16.5935C26.6983 16.4177 26.5913 16.1792 26.5913 15.9306C26.5913 15.682 26.6983 15.4435 26.8887 15.2677C27.079 15.0919 27.3373 14.9931 27.6065 14.9931H31.6672C31.9364 14.9931 32.1946 15.0919 32.385 15.2677C32.5754 15.4435 32.6823 15.682 32.6823 15.9306ZM6.28802 15.9306C6.28802 16.1792 6.18106 16.4177 5.99068 16.5935C5.8003 16.7693 5.54209 16.8681 5.27285 16.8681H1.21219C0.942948 16.8681 0.684737 16.7693 0.494357 16.5935C0.303976 16.4177 0.197021 16.1792 0.197021 15.9306C0.197021 15.682 0.303976 15.4435 0.494357 15.2677C0.684737 15.0919 0.942948 14.9931 1.21219 14.9931H5.27285C5.54209 14.9931 5.8003 15.0919 5.99068 15.2677C6.18106 15.4435 6.28802 15.682 6.28802 15.9306ZM27.9253 5.32373C28.1156 5.49954 28.2225 5.73795 28.2225 5.98654C28.2225 6.23513 28.1156 6.47355 27.9253 6.64935L25.0544 9.30248C24.96 9.38952 24.848 9.45854 24.7247 9.5056C24.6014 9.55266 24.4693 9.57684 24.3359 9.57675C24.0665 9.57657 23.8083 9.47758 23.6179 9.30154C23.5237 9.21438 23.4489 9.11092 23.398 8.99708C23.347 8.88324 23.3208 8.76125 23.3209 8.63806C23.3211 8.38929 23.4283 8.15077 23.6189 7.97498L26.4898 5.32373C26.6802 5.14797 26.9383 5.04924 27.2075 5.04924C27.4767 5.04924 27.7349 5.14797 27.9253 5.32373ZM9.26042 22.5606C9.45074 22.7364 9.55765 22.9748 9.55765 23.2234C9.55765 23.472 9.45074 23.7104 9.26042 23.8862L6.38953 26.5375C6.19807 26.7083 5.94164 26.8027 5.67546 26.8006C5.40929 26.7985 5.15467 26.6999 4.96645 26.5261C4.77823 26.3522 4.67147 26.1171 4.66916 25.8713C4.66684 25.6255 4.76917 25.3887 4.95409 25.2119L7.82498 22.5606C8.01535 22.3848 8.27351 22.2861 8.5427 22.2861C8.81188 22.2861 9.07005 22.3848 9.26042 22.5606ZM27.9253 26.5375C27.7349 26.7132 27.4767 26.812 27.2075 26.812C26.9383 26.812 26.6802 26.7132 26.4898 26.5375L23.6189 23.8862C23.434 23.7094 23.3317 23.4726 23.334 23.2268C23.3363 22.981 23.4431 22.7458 23.6313 22.572C23.8195 22.3982 24.0741 22.2996 24.3403 22.2975C24.6065 22.2953 24.8629 22.3898 25.0544 22.5606L27.9253 25.2119C28.1156 25.3877 28.2225 25.6261 28.2225 25.8747C28.2225 26.1233 28.1156 26.3617 27.9253 26.5375ZM9.26042 9.30248C9.07005 9.47823 8.81188 9.57697 8.5427 9.57697C8.27351 9.57697 8.01535 9.47823 7.82498 9.30248L4.95409 6.64935C4.85713 6.56287 4.77979 6.45942 4.72659 6.34504C4.67338 6.23067 4.64538 6.10765 4.64421 5.98317C4.64304 5.85869 4.66872 5.73524 4.71977 5.62002C4.77081 5.50481 4.84619 5.40013 4.9415 5.31211C5.03682 5.22408 5.15017 5.15447 5.27493 5.10733C5.39969 5.06019 5.53336 5.03647 5.66816 5.03756C5.80295 5.03864 5.93616 5.0645 6.06001 5.11363C6.18387 5.16277 6.29589 5.23419 6.38953 5.32373L9.26042 7.97498C9.35496 8.06206 9.42997 8.16552 9.48114 8.27942C9.53232 8.39331 9.55866 8.51541 9.55866 8.63873C9.55866 8.76204 9.53232 8.88414 9.48114 8.99804C9.42997 9.11194 9.35496 9.21539 9.26042 9.30248Z" fill="#999999"/>
</g>
<defs>
<clipPath id="clip0_31_2074">
<rect width="32.4853" height="30" fill="white" transform="translate(0.197021 0.930603)"/>
</clipPath>
</defs>
</svg>
