<svg width="12" height="21" viewBox="0 0 12 21" fill="none" xmlns="http://www.w3.org/2000/svg">
<path d="M9.40638 20.7083C9.18229 20.709 8.96087 20.6609 8.7584 20.5676C8.55593 20.4742 8.37756 20.3379 8.23638 20.1687L0.991379 11.4187C0.770756 11.1578 0.650146 10.8304 0.650146 10.4927C0.650146 10.1549 0.770756 9.82757 0.991379 9.56662L8.49138 0.816621C8.74599 0.518805 9.11185 0.33152 9.50849 0.295966C9.90513 0.260412 10.3001 0.379502 10.6064 0.627038C10.9127 0.874573 11.1053 1.23028 11.1419 1.6159C11.1785 2.00152 11.056 2.38547 10.8014 2.68329L4.09638 10.5L10.5764 18.3166C10.7598 18.5307 10.8763 18.7913 10.9121 19.0678C10.948 19.3442 10.9016 19.6248 10.7785 19.8764C10.6554 20.128 10.4608 20.3401 10.2176 20.4875C9.97444 20.6349 9.69293 20.7115 9.40638 20.7083Z" fill="#999999"/>
</svg>
