<svg width="21" height="21" viewBox="0 0 21 21" fill="none" xmlns="http://www.w3.org/2000/svg">
<path d="M7.55992 15.3896L8.47992 11.4996L5.47992 8.91959L9.42992 8.54959L10.9799 4.93959L12.5299 8.58959L16.4799 8.91959L13.4799 11.4996L14.3999 15.3896L10.9799 13.3296L7.55992 15.3896ZM10.9799 0.139587C12.2931 0.139587 13.5935 0.398245 14.8068 0.900792C16.02 1.40334 17.1224 2.13993 18.051 3.06852C18.9796 3.99711 19.7162 5.0995 20.2187 6.31275C20.7213 7.52601 20.9799 8.82637 20.9799 10.1396C20.9799 12.7918 19.9264 15.3353 18.051 17.2107C16.1756 19.086 13.6321 20.1396 10.9799 20.1396C9.6667 20.1396 8.36634 19.8809 7.15308 19.3784C5.93983 18.8758 4.83744 18.1392 3.90885 17.2107C2.03349 15.3353 0.979919 12.7918 0.979919 10.1396C0.979919 7.48742 2.03349 4.94388 3.90885 3.06852C5.78422 1.19316 8.32775 0.139587 10.9799 0.139587V0.139587ZM10.9799 2.13959C8.85819 2.13959 6.82336 2.98244 5.32307 4.48273C3.82277 5.98302 2.97992 8.01786 2.97992 10.1396C2.97992 12.2613 3.82277 14.2962 5.32307 15.7964C6.82336 17.2967 8.85819 18.1396 10.9799 18.1396C13.1017 18.1396 15.1365 17.2967 16.6368 15.7964C18.1371 14.2962 18.9799 12.2613 18.9799 10.1396C18.9799 8.01786 18.1371 5.98302 16.6368 4.48273C15.1365 2.98244 13.1017 2.13959 10.9799 2.13959V2.13959Z" fill="#82AF00"/>
</svg>
