<svg width="25" height="23" viewBox="0 0 25 23" fill="none" xmlns="http://www.w3.org/2000/svg">
<path d="M9.08 16.5313L10 12.8034L7 10.3309L10.95 9.97627L12.5 6.51669L14.05 10.0146L18 10.3309L15 12.8034L15.92 16.5313L12.5 14.5571L9.08 16.5313ZM12.5 1.91669C13.8132 1.91669 15.1136 2.16457 16.3268 2.64617C17.5401 3.12778 18.6425 3.83369 19.5711 4.72358C20.4997 5.61348 21.2362 6.66993 21.7388 7.83264C22.2413 8.99534 22.5 10.2415 22.5 11.5C22.5 14.0417 21.4464 16.4792 19.5711 18.2765C17.6957 20.0737 15.1522 21.0834 12.5 21.0834C11.1868 21.0834 9.88642 20.8355 8.67317 20.3539C7.45991 19.8723 6.35752 19.1664 5.42893 18.2765C3.55357 16.4792 2.5 14.0417 2.5 11.5C2.5 8.95836 3.55357 6.5208 5.42893 4.72358C7.3043 2.92636 9.84784 1.91669 12.5 1.91669ZM12.5 3.83335C10.3783 3.83335 8.34344 4.64109 6.84315 6.07887C5.34285 7.51665 4.5 9.46669 4.5 11.5C4.5 13.5333 5.34285 15.4834 6.84315 16.9212C8.34344 18.359 10.3783 19.1667 12.5 19.1667C14.6217 19.1667 16.6566 18.359 18.1569 16.9212C19.6571 15.4834 20.5 13.5333 20.5 11.5C20.5 9.46669 19.6571 7.51665 18.1569 6.07887C16.6566 4.64109 14.6217 3.83335 12.5 3.83335Z" fill="#EFEFEF"/>
</svg>
