<svg width="25" height="25" viewBox="0 0 25 25" fill="none" xmlns="http://www.w3.org/2000/svg">
<path d="M9.08 17.4489L10 13.5589L7 10.9789L10.95 10.6089L12.5 6.99885L14.05 10.6489L18 10.9789L15 13.5589L15.92 17.4489L12.5 15.3889L9.08 17.4489ZM12.5 2.19885C13.8132 2.19885 15.1136 2.45751 16.3268 2.96006C17.5401 3.4626 18.6425 4.1992 19.5711 5.12778C20.4997 6.05637 21.2362 7.15876 21.7388 8.37202C22.2413 9.58527 22.5 10.8856 22.5 12.1989C22.5 14.851 21.4464 17.3946 19.5711 19.2699C17.6957 21.1453 15.1522 22.1989 12.5 22.1989C11.1868 22.1989 9.88642 21.9402 8.67317 21.4376C7.45991 20.9351 6.35752 20.1985 5.42893 19.2699C3.55357 17.3946 2.5 14.851 2.5 12.1989C2.5 9.54669 3.55357 7.00315 5.42893 5.12778C7.3043 3.25242 9.84784 2.19885 12.5 2.19885ZM12.5 4.19885C10.3783 4.19885 8.34344 5.04171 6.84315 6.542C5.34285 8.04229 4.5 10.0771 4.5 12.1989C4.5 14.3206 5.34285 16.3554 6.84315 17.8557C8.34344 19.356 10.3783 20.1989 12.5 20.1989C14.6217 20.1989 16.6566 19.356 18.1569 17.8557C19.6571 16.3554 20.5 14.3206 20.5 12.1989C20.5 10.0771 19.6571 8.04229 18.1569 6.542C16.6566 5.04171 14.6217 4.19885 12.5 4.19885Z" fill="#82AF00"/>
</svg>
