<svg width="31" height="31" viewBox="0 0 31 31" fill="none" xmlns="http://www.w3.org/2000/svg">
<g clip-path="url(#clip0_6_2122)">
<path d="M21.125 11.5553C21.125 13.0471 20.5324 14.4779 19.4775 15.5328C18.4226 16.5877 16.9918 17.1803 15.5 17.1803C14.0082 17.1803 12.5774 16.5877 11.5225 15.5328C10.4676 14.4779 9.875 13.0471 9.875 11.5553C9.875 10.0635 10.4676 8.63271 11.5225 7.57782C12.5774 6.52293 14.0082 5.9303 15.5 5.9303C16.9918 5.9303 18.4226 6.52293 19.4775 7.57782C20.5324 8.63271 21.125 10.0635 21.125 11.5553Z" fill="#999999"/>
<path fill-rule="evenodd" clip-rule="evenodd" d="M0.5 15.3053C0.5 11.3271 2.08035 7.51174 4.8934 4.6987C7.70644 1.88565 11.5218 0.305298 15.5 0.305298C19.4782 0.305298 23.2936 1.88565 26.1066 4.6987C28.9196 7.51174 30.5 11.3271 30.5 15.3053C30.5 19.2835 28.9196 23.0989 26.1066 25.9119C23.2936 28.7249 19.4782 30.3053 15.5 30.3053C11.5218 30.3053 7.70644 28.7249 4.8934 25.9119C2.08035 23.0989 0.5 19.2835 0.5 15.3053ZM15.5 2.1803C13.0283 2.18043 10.6069 2.87848 8.51451 4.1941C6.42207 5.50972 4.74366 7.38944 3.67243 9.61691C2.60121 11.8444 2.18072 14.3291 2.45937 16.785C2.73802 19.2409 3.70447 21.5682 5.2475 23.499C6.57875 21.354 9.50938 19.0553 15.5 19.0553C21.4906 19.0553 24.4194 21.3522 25.7525 23.499C27.2955 21.5682 28.262 19.2409 28.5406 16.785C28.8193 14.3291 28.3988 11.8444 27.3276 9.61691C26.2563 7.38944 24.5779 5.50972 22.4855 4.1941C20.3931 2.87848 17.9717 2.18043 15.5 2.1803Z" fill="#999999"/>
</g>
<defs>
<clipPath id="clip0_6_2122">
<rect width="30" height="30" fill="white" transform="translate(0.5 0.305298)"/>
</clipPath>
</defs>
</svg>
