<svg width="31" height="30" viewBox="0 0 31 30" fill="none" xmlns="http://www.w3.org/2000/svg">
<path d="M30.0072 27.1413L24.3423 21.4931C26.17 19.1646 27.1618 16.2892 27.1581 13.329C27.1581 10.6928 26.3763 8.11578 24.9117 5.92383C23.4471 3.73188 21.3654 2.02346 18.9298 1.01462C16.4943 0.00577524 13.8143 -0.258184 11.2287 0.25612C8.6431 0.770424 6.26809 2.03989 4.40399 3.90399C2.53989 5.76809 1.27042 8.1431 0.75612 10.7287C0.241816 13.3143 0.505775 15.9943 1.51462 18.4298C2.52346 20.8654 4.23188 22.9471 6.42383 24.4117C8.61578 25.8763 11.1928 26.6581 13.829 26.6581C16.7892 26.6618 19.6646 25.67 21.9931 23.8423L27.6413 29.5072C27.7961 29.6633 27.9804 29.7873 28.1835 29.8719C28.3865 29.9565 28.6043 30 28.8242 30C29.0442 30 29.2619 29.9565 29.465 29.8719C29.668 29.7873 29.8523 29.6633 30.0072 29.5072C30.1633 29.3523 30.2873 29.168 30.3719 28.965C30.4564 28.7619 30.5 28.5442 30.5 28.3242C30.5 28.1043 30.4564 27.8865 30.3719 27.6835C30.2873 27.4804 30.1633 27.2962 30.0072 27.1413ZM3.83227 13.329C3.83227 11.3519 4.41857 9.41909 5.51703 7.77513C6.61549 6.13117 8.17677 4.84986 10.0034 4.09322C11.8301 3.33659 13.8401 3.13862 15.7793 3.52435C17.7185 3.91008 19.4998 4.86218 20.8978 6.26025C22.2959 7.65833 23.248 9.43958 23.6337 11.3788C24.0195 13.318 23.8215 15.328 23.0649 17.1546C22.3082 18.9813 21.0269 20.5426 19.383 21.6411C17.739 22.7395 15.8062 23.3258 13.829 23.3258C11.1777 23.3258 8.63501 22.2726 6.76025 20.3978C4.88549 18.5231 3.83227 15.9804 3.83227 13.329Z" fill="#82AF00"/>
<path d="M17.5188 9.69606C17.2851 9.31587 16.9455 9.00244 16.5365 8.78932C16.1274 8.5762 15.6642 8.47142 15.1966 8.48619H12.6163C11.932 8.48619 11.2757 8.74112 10.7918 9.19491C10.3079 9.6487 10.036 10.2642 10.036 10.9059C10.036 11.5477 10.3079 12.1632 10.7918 12.617C11.2757 13.0707 11.932 13.3257 12.6163 13.3257H13.9064H15.1966C15.8809 13.3257 16.5372 13.5806 17.0211 14.0344C17.505 14.4882 17.7768 15.1037 17.7768 15.7454C17.7768 16.3872 17.505 17.0027 17.0211 17.4565C16.5372 17.9102 15.8809 18.1652 15.1966 18.1652H12.6163C12.1486 18.1799 11.6854 18.0752 11.2764 17.862C10.8673 17.6489 10.5277 17.3355 10.294 16.9553M13.9064 6.06644V8.48619M13.9064 18.1652V20.5849" stroke="#82AF00" stroke-width="2.5" stroke-linecap="round" stroke-linejoin="round"/>
</svg>
