<svg width="31" height="31" viewBox="0 0 31 31" fill="none" xmlns="http://www.w3.org/2000/svg">
<path d="M29.8482 19.5814L27.5316 17.7063C27.6412 17.0701 27.6978 16.4205 27.6978 15.7709C27.6978 15.1213 27.6412 14.4717 27.5316 13.8355L29.8482 11.9603C30.023 11.8187 30.148 11.6301 30.2068 11.4196C30.2656 11.209 30.2552 10.9865 30.1772 10.7817L30.1453 10.6946C29.5076 9.0071 28.5525 7.44273 27.3264 6.07712L27.2628 6.0068C27.114 5.84123 26.9158 5.72221 26.6942 5.66542C26.4726 5.60863 26.238 5.61675 26.0213 5.6887L23.1458 6.6564C22.0847 5.83268 20.8999 5.18308 19.6195 4.7277L19.0642 1.88152C19.0223 1.66736 18.9126 1.47034 18.7496 1.31663C18.5866 1.16292 18.3781 1.0598 18.1517 1.02097L18.0562 1.00422C16.2135 0.689469 14.2753 0.689469 12.4325 1.00422L12.3371 1.02097C12.1107 1.0598 11.9021 1.16292 11.7392 1.31663C11.5762 1.47034 11.4664 1.66736 11.4245 1.88152L10.8657 4.74109C9.59556 5.19657 8.41274 5.84583 7.36417 6.6631L4.46745 5.6887C4.25087 5.61618 4.01611 5.60777 3.79436 5.66459C3.57261 5.72141 3.37438 5.84077 3.226 6.0068L3.16233 6.07712C1.93767 7.4437 0.982812 9.0078 0.343425 10.6946L0.311593 10.7817C0.152432 11.2002 0.283298 11.669 0.640525 11.9603L2.98549 13.8556C2.87585 14.4851 2.82279 15.128 2.82279 15.7675C2.82279 16.4104 2.87585 17.0533 2.98549 17.6795L0.640525 19.5747C0.465787 19.7163 0.340725 19.9049 0.281968 20.1155C0.223211 20.326 0.233544 20.5485 0.311593 20.7534L0.343425 20.8404C0.983604 22.528 1.93149 24.0851 3.16233 25.4579L3.226 25.5282C3.37474 25.6938 3.57298 25.8128 3.7946 25.8696C4.01621 25.9264 4.2508 25.9183 4.46745 25.8463L7.36417 24.872C8.41817 25.6923 9.59596 26.3419 10.8657 26.794L11.4245 29.6535C11.4664 29.8677 11.5762 30.0647 11.7392 30.2184C11.9021 30.3721 12.1107 30.4753 12.3371 30.5141L12.4325 30.5308C14.2922 30.8473 16.1966 30.8473 18.0562 30.5308L18.1517 30.5141C18.3781 30.4753 18.5866 30.3721 18.7496 30.2184C18.9126 30.0647 19.0223 29.8677 19.0642 29.6535L19.6195 26.8074C20.8994 26.3532 22.0909 25.7014 23.1458 24.8786L26.0213 25.8463C26.2379 25.9189 26.4727 25.9273 26.6944 25.8705C26.9162 25.8136 27.1144 25.6943 27.2628 25.5282L27.3264 25.4579C28.5573 24.0817 29.5052 22.528 30.1453 20.8404L30.1772 20.7534C30.3363 20.3415 30.2055 19.8727 29.8482 19.5814ZM25.0204 14.2306C25.1088 14.7362 25.1548 15.2552 25.1548 15.7742C25.1548 16.2932 25.1088 16.8122 25.0204 17.3179L24.7869 18.6606L27.429 20.8002C27.0285 21.6738 26.5229 22.5008 25.9223 23.2647L22.64 22.1631L21.5295 23.027C20.6841 23.6833 19.7433 24.1989 18.7247 24.5605L17.3771 25.0394L16.744 28.2874C15.7451 28.3945 14.7366 28.3945 13.7377 28.2874L13.1046 25.0327L11.7676 24.5472C10.7596 24.1855 9.82232 23.6699 8.98407 23.0169L7.87349 22.1497L4.57002 23.2613C3.96875 22.4946 3.46651 21.6675 3.0633 20.7969L5.73366 18.6371L5.50376 17.2978C5.41888 16.7988 5.3729 16.2832 5.3729 15.7742C5.3729 15.2619 5.41534 14.7496 5.50376 14.2507L5.73366 12.9113L3.0633 10.7516C3.46297 9.87761 3.96875 9.05389 4.57002 8.28709L7.87349 9.39878L8.98407 8.53153C9.82232 7.87858 10.7596 7.36292 11.7676 7.00129L13.1081 6.52246L13.7412 3.26777C14.7351 3.16062 15.7502 3.16062 16.7476 3.26777L17.3807 6.51577L18.7282 6.99459C19.7433 7.35623 20.6877 7.87189 21.533 8.52818L22.6436 9.39208L25.9258 8.29044C26.5271 9.05724 27.0293 9.8843 27.4325 10.7549L24.7905 12.8946L25.0204 14.2306ZM15.2479 9.54611C11.8101 9.54611 9.02298 12.1847 9.02298 15.4394C9.02298 18.6941 11.8101 21.3326 15.2479 21.3326C18.6858 21.3326 21.4729 18.6941 21.4729 15.4394C21.4729 12.1847 18.6858 9.54611 15.2479 9.54611ZM18.0491 18.0913C17.6817 18.4402 17.2451 18.7168 16.7644 18.9053C16.2836 19.0938 15.7683 19.1904 15.2479 19.1896C14.1904 19.1896 13.1965 18.7979 12.4467 18.0913C12.0782 17.7435 11.7861 17.3301 11.587 16.875C11.3879 16.4199 11.2858 15.932 11.2866 15.4394C11.2866 14.4382 11.7004 13.4973 12.4467 12.7874C13.1965 12.0775 14.1904 11.6891 15.2479 11.6891C16.3055 11.6891 17.2993 12.0775 18.0491 12.7874C18.4176 13.1352 18.7098 13.5486 18.9089 14.0037C19.108 14.4589 19.2101 14.9468 19.2092 15.4394C19.2092 16.4406 18.7954 17.3815 18.0491 18.0913Z" fill="#999999"/>
</svg>
