<svg width="101" height="28" viewBox="0 0 101 28" fill="none" xmlns="http://www.w3.org/2000/svg">
<path d="M5.09 0.676254L8.36 1.72625C8.08 2.38625 7.73 3.06625 7.31 3.76625H22.34V6.88625H20.57V10.2163H23.81V13.3663H20.57V16.8763H23V20.0263H0.98V16.9063H4.1V13.3663H0.38V10.2163H4.1V8.29625C3.24 9.23625 2.73 9.79625 2.57 9.97625L0.17 7.57625C1.23 6.67625 2.2 5.59625 3.08 4.33625C3.96 3.07625 4.63 1.85625 5.09 0.676254ZM2.78 20.2063L5.96 21.2263C5.04 23.9263 4.09 25.9663 3.11 27.3463L0.0200001 25.6663C1.3 23.9663 2.22 22.1463 2.78 20.2063ZM23.93 25.6963L20.66 27.1063C19.98 25.1263 19.1 23.2563 18.02 21.4963L21.11 20.2963C22.17 21.8963 23.11 23.6963 23.93 25.6963ZM17.57 26.0263L14.21 26.8663C13.83 24.8463 13.32 22.9663 12.68 21.2263L15.8 20.5663C16.52 22.2263 17.11 24.0463 17.57 26.0263ZM11.15 26.5063L7.76 26.8363C7.76 24.7763 7.61 22.8763 7.31 21.1363L10.49 20.6863C10.87 22.6263 11.09 24.5663 11.15 26.5063ZM11.54 13.3663V16.9063H13.04V13.3663H11.54ZM16.04 13.3663V16.9063H17.54V13.3663H16.04ZM7.22 13.3663V16.9063H8.63V13.3663H7.22ZM16.04 6.88625V10.2163H17.54V6.88625H16.04ZM11.54 6.88625V10.2163H13.04V6.88625H11.54ZM7.22 6.88625V10.2163H8.63V6.88625H7.22ZM48.699 2.41625V19.3363C48.699 20.6163 48.409 21.5263 47.829 22.0663C47.269 22.6063 46.309 22.8763 44.949 22.8763C44.629 22.8763 43.649 22.8063 42.009 22.6663L41.499 19.3363C42.339 19.4963 43.219 19.5763 44.139 19.5763C44.579 19.5763 44.869 19.5263 45.009 19.4263C45.149 19.3263 45.219 19.0663 45.219 18.6463V5.53625H40.629V27.1363H37.149V2.41625H48.699ZM35.229 0.916254L37.059 3.76625C34.859 4.68625 32.419 5.41625 29.739 5.95625V10.1863H36.399V13.2463H29.739V18.7363H36.429V21.7663H29.739V24.8863H26.319V3.40625C29.839 2.84625 32.809 2.01625 35.229 0.916254ZM75.0581 23.8963L73.2581 26.9863C69.9781 25.9063 67.2481 24.3963 65.0681 22.4563V24.1363C61.2881 25.0363 56.8881 25.8863 51.8681 26.6863L51.0581 23.4163C51.3981 23.3763 51.9081 23.3163 52.5881 23.2363C53.2681 23.1363 53.7581 23.0663 54.0581 23.0263V3.73625H60.9281V0.916254H64.3181V3.73625H71.4581V15.4363L71.8181 15.1363L73.9481 17.3863C72.0281 18.9063 70.2681 20.1263 68.6681 21.0463C70.3881 22.2663 72.5181 23.2163 75.0581 23.8963ZM63.9881 21.3763C62.3681 19.5963 61.1781 17.6463 60.4181 15.5263H57.4181V22.5763C59.0381 22.3363 61.2281 21.9363 63.9881 21.3763ZM57.4181 10.8463V12.8263H68.1581V10.8463H57.4181ZM57.4181 6.43625V8.29625H68.1581V6.43625H57.4181ZM66.2081 19.0663C67.9881 18.0263 69.6981 16.8463 71.3381 15.5263H63.8981C64.3781 16.8063 65.1481 17.9863 66.2081 19.0663ZM96.8271 12.7963H80.4171V1.96625H96.8271V12.7963ZM100.187 26.5663H96.7071V25.0963H92.6571V27.0163H89.1771V14.4163H100.187V26.5663ZM87.7671 26.5663H84.3471V25.0963H80.5071V27.0163H77.0571V14.4163H87.7671V26.5663ZM83.8671 5.17625V9.61625H93.3471V5.17625H83.8671ZM92.6571 17.5963V22.7263H96.7071V17.5963H92.6571ZM80.5071 17.5963V22.7263H84.3471V17.5963H80.5071Z" fill="#850000"/>
</svg>
